<svg width="42" height="47" viewBox="0 0 42 47" fill="none" xmlns="http://www.w3.org/2000/svg">
<path d="M20.977 46.6084C20.3358 46.6084 19.7375 46.4374 19.1818 46.1382L13.4973 42.7617C12.6424 42.2915 13.0699 42.1206 13.3263 42.0351C14.4803 41.6504 14.694 41.5649 15.8908 40.8811C16.019 40.7956 16.19 40.8384 16.3182 40.9238L20.6778 43.531C20.8487 43.6165 21.0624 43.6165 21.1907 43.531L38.2444 33.6578C38.4153 33.5724 38.5008 33.4014 38.5008 33.1877V13.4841C38.5008 13.2703 38.4153 13.0994 38.2444 13.0139L21.1907 3.18345C21.0197 3.09796 20.806 3.09796 20.6778 3.18345L3.62407 13.0139C3.45311 13.0994 3.36763 13.3131 3.36763 13.4841V33.1877C3.36763 33.3587 3.45311 33.5724 3.62407 33.6578L8.28285 36.3505C10.8046 37.6328 12.386 36.1368 12.386 34.6409V15.1937C12.386 14.9372 12.5997 14.6808 12.8989 14.6808H15.0787C15.3351 14.6808 15.5916 14.8945 15.5916 15.1937V34.6409C15.5916 38.0174 13.7537 39.9835 10.5481 39.9835C9.56508 39.9835 8.79574 39.9835 6.61595 38.915L2.12813 36.3505C1.01687 35.7094 0.333008 34.5127 0.333008 33.2304V13.5268C0.333008 12.2446 1.01687 11.0478 2.12813 10.4067L19.1818 0.533498C20.2504 -0.064877 21.7036 -0.064877 22.7721 0.533498L39.8258 10.4067C40.937 11.0478 41.6209 12.2446 41.6209 13.5268V33.2304C41.6209 34.5127 40.937 35.7094 39.8258 36.3505L22.7721 46.2237C22.2164 46.4802 21.5753 46.6084 20.977 46.6084ZM26.2341 33.0595C18.7544 33.0595 17.2157 29.6402 17.2157 26.7338C17.2157 26.4773 17.4294 26.2209 17.7286 26.2209H19.9512C20.2076 26.2209 20.4213 26.3919 20.4213 26.6483C20.7633 28.9136 21.7463 30.0249 26.2769 30.0249C29.8671 30.0249 31.4058 29.2128 31.4058 27.2894C31.4058 26.1782 30.9784 25.3661 25.3793 24.8104C20.7205 24.3403 17.8141 23.3145 17.8141 19.596C17.8141 16.134 20.7205 14.0824 25.593 14.0824C31.0639 14.0824 33.7565 15.963 34.0985 20.0662C34.0985 20.1944 34.0557 20.3226 33.9702 20.4508C33.8848 20.5363 33.7565 20.6218 33.6283 20.6218H31.4058C31.1921 20.6218 30.9784 20.4508 30.9356 20.2371C30.4227 17.8864 29.0978 17.117 25.593 17.117C21.6608 17.117 21.1907 18.4848 21.1907 19.5105C21.1907 20.75 21.7463 21.1347 27.0462 21.8186C32.3033 22.5024 34.7823 23.4855 34.7823 27.1612C34.7396 30.9224 31.6622 33.0595 26.2341 33.0595Z" fill="#539E43"/>
</svg>
