<svg width="45" height="42" viewBox="0 0 45 42" fill="none" xmlns="http://www.w3.org/2000/svg">
<path d="M30.8262 28.7029C32.4388 28.5388 33.6621 27.1721 33.6065 25.5318C33.551 23.8919 32.1607 22.5798 30.4925 22.5798H30.3814C28.6574 22.6344 27.323 24.0559 27.3787 25.7506C27.4343 26.5707 27.7679 27.2813 28.2683 27.7734C26.3777 31.4363 23.4861 34.1151 19.1489 36.3566C16.2017 37.8873 13.1435 38.4341 10.0852 38.0515C7.58285 37.7235 5.63663 36.6302 4.41312 34.8258C2.63382 32.147 2.46705 29.2494 3.96845 26.352C5.02503 24.2745 6.69304 22.7437 7.74962 21.9783C7.52721 21.2676 7.1935 20.0649 7.02674 19.1902C-1.03622 24.9306 -0.202047 32.6938 2.24465 36.3566C4.07958 39.0902 7.80526 40.785 11.9201 40.785C13.0322 40.785 14.1443 40.6755 15.2565 40.4024C22.3742 39.0355 27.768 34.8805 30.8262 28.7029ZM40.613 21.9238C36.3869 17.0581 30.159 14.3793 23.0413 14.3793H22.1518C21.6513 13.3953 20.5947 12.7391 19.427 12.7391H19.3157C17.592 12.7939 16.2576 14.2152 16.3131 15.91C16.3688 17.5501 17.7588 18.8622 19.427 18.8622H19.5381C20.7615 18.8076 21.8181 18.0422 22.2629 17.0034H23.2637C27.4899 17.0034 31.4935 18.206 35.1081 20.5569C37.8882 22.361 39.8901 24.7119 41.0022 27.5547C41.9475 29.8509 41.8919 32.0924 40.8909 34.0059C39.334 36.9033 36.7206 38.4887 33.273 38.4887C31.0486 38.4887 28.9357 37.8327 27.8235 37.3407C27.2119 37.8873 26.0996 38.762 25.3211 39.3089C27.7124 40.4022 30.159 41.0037 32.4944 41.0037C37.8326 41.0037 41.7808 38.106 43.2822 35.2086C44.8946 32.0376 44.7833 26.5707 40.613 21.9238ZM12.3649 29.6321C12.4206 31.2722 13.8107 32.5841 15.4789 32.5841H15.5902C17.3139 32.5296 18.6484 31.1082 18.5928 29.4135C18.5373 27.7732 17.147 26.4613 15.4789 26.4613H15.3678C15.2565 26.4613 15.0896 26.4613 14.9786 26.5158C12.6986 22.7983 11.7534 18.7528 12.0871 14.3792C12.3093 11.099 13.4215 8.25605 15.3678 5.90518C16.9802 3.88237 20.0942 2.89833 22.2074 2.84379C28.1016 2.73437 30.6036 9.95078 30.7706 12.8483C31.4935 13.0124 32.7168 13.3951 33.551 13.6685C32.8836 4.81205 27.323 0.219727 21.985 0.219727C16.9802 0.219727 12.3649 3.7733 10.5298 9.02161C7.97203 16.0193 9.6402 22.7437 12.7541 28.0468C12.4762 28.4294 12.3093 29.0307 12.3649 29.6321Z" fill="#764ABC"/>
</svg>
