<?xml version="1.0" encoding="UTF-8"?><svg version="1.1" viewBox="0 0 100 100" xmlns="http://www.w3.org/2000/svg" xmlns:xlink="http://www.w3.org/1999/xlink"><!--Generated by IJSVG (https://github.com/iconjar/IJSVG)--><g fill="#000"><path d="M68.65,83.11v-17v0c0,-0.552285 -0.447715,-1 -1,-1c-0.552285,0 -1,0.447715 -1,1v17l3.23593e-09,-2.92864e-07c-0.00549166,0.497026 -0.412863,0.895493 -0.909889,0.890002c-3.70348e-05,-4.09199e-07 -7.40695e-05,-8.20684e-07 -0.000111104,-1.23446e-06h-50.19l-4.12886e-08,4.63956e-10c-0.491502,0.00552283 -0.894421,-0.388441 -0.899944,-0.879944c-3.76643e-05,-0.00335193 -5.63911e-05,-0.00670404 -5.61793e-05,-0.0100562v-66.22l-1.77323e-09,-5.60472e-05c-7.42195e-08,-0.491533 0.398466,-0.89 0.89,-0.89c0.00335214,-5.06148e-10 0.00670425,1.89375e-05 0.0100562,5.68131e-05h32.0899h-4.37114e-08c0.552285,2.41411e-08 1,-0.447715 1,-1c2.41411e-08,-0.552285 -0.447715,-1 -1,-1h-32.09l-8.28464e-08,-4.83169e-13c-1.59773,-9.45337e-06 -2.89449,1.29228 -2.9,2.89v66.22l-1.29723e-07,-3.76905e-05c0.00548864,1.59772 1.30223,2.89003 2.89996,2.89004h50.19l-8.388e-08,-1.98952e-12c1.59937,3.78206e-05 2.89901,-1.29067 2.91,-2.89Z"></path><path d="M54.1,25.71l-1.26222e-07,-3.68613e-05c0.0054664,1.59935 1.30062,2.89453 2.89996,2.90004h9.65v12.47l1.42109e-14,1.50996e-07c8.33927e-08,0.552285 0.447715,1 1,1c0.552285,-8.33927e-08 1,-0.447715 1,-1v-13.47l6.41052e-10,3.3344e-07c-0.000257689,-0.134048 -0.0274634,-0.266676 -0.0799999,-0.39l-3.78787e-08,-7.8419e-08c-0.0513773,-0.106365 -0.118835,-0.204179 -0.2,-0.29v0v0l-12.56,-12.64v0l1.54875e-08,1.40742e-08c-0.0972009,-0.0883309 -0.208815,-0.159358 -0.33,-0.21l-4.71377e-08,-2.0091e-08c-0.120222,-0.051241 -0.249323,-0.0784201 -0.38,-0.0800001v0l4.06812e-08,-4.91864e-10c-0.130677,0.00157998 -0.259778,0.028759 -0.38,0.08l5.45869e-08,-1.91436e-08c-0.117669,0.0412667 -0.223899,0.109802 -0.31,0.2v0l9.61577e-08,-9.99627e-08c-0.0923809,0.0960364 -0.166882,0.207788 -0.22,0.33l-1.88179e-08,4.75847e-08c-0.0478157,0.120911 -0.0715929,0.249987 -0.07,0.38v0Zm2,0v-8.29l9.14,9.19h-8.24h-3.93403e-08c-0.497056,-2.1727e-08 -0.9,-0.402944 -0.9,-0.9Z"></path><path d="M23.25,25.89h13.24h-4.37114e-08c0.552285,2.41411e-08 1,-0.447715 1,-1c2.41411e-08,-0.552285 -0.447715,-1 -1,-1h-13.24h-4.37114e-08c-0.552285,2.41411e-08 -1,0.447715 -1,1c2.41411e-08,0.552285 0.447715,1 1,1Z"></path><path d="M22.25,36.89l7.10543e-15,1.50996e-07c8.33927e-08,0.552285 0.447715,1 1,1h33.37h-4.37114e-08c0.552285,2.41411e-08 1,-0.447715 1,-1c2.41411e-08,-0.552285 -0.447715,-1 -1,-1h-33.37h-4.37114e-08c-0.552285,2.41411e-08 -1,0.447715 -1,1c0,0 0,1.42109e-14 0,1.42109e-14Z"></path><path d="M56.62,41.89h-33.37h-4.37114e-08c-0.552285,2.41411e-08 -1,0.447715 -1,1c2.41411e-08,0.552285 0.447715,1 1,1h33.37h-4.37114e-08c0.552285,2.41411e-08 1,-0.447715 1,-1c2.41411e-08,-0.552285 -0.447715,-1 -1,-1Z"></path><path d="M57.62,48.89v0c0,-0.552285 -0.447715,-1 -1,-1h-33.37h-4.37114e-08c-0.552285,2.41411e-08 -1,0.447715 -1,1c2.41411e-08,0.552285 0.447715,1 1,1h33.37h-4.37114e-08c0.552285,2.41411e-08 1,-0.447715 1,-1Z"></path><path d="M47.58,54.89v0c0,-0.552285 -0.447715,-1 -1,-1h-23.33h-4.37114e-08c-0.552285,2.41411e-08 -1,0.447715 -1,1c2.41411e-08,0.552285 0.447715,1 1,1h23.33h-4.37114e-08c0.552285,2.41411e-08 1,-0.447715 1,-1Z"></path><path d="M23.25,71.89h-4.37114e-08c-0.552285,2.41411e-08 -1,0.447715 -1,1c2.41411e-08,0.552285 0.447715,1 1,1h19.56h-4.37114e-08c0.552285,2.41411e-08 1,-0.447715 1,-1c2.41411e-08,-0.552285 -0.447715,-1 -1,-1Z"></path><path d="M87.06,38.74l-4.24,-4.24l6.14762e-09,6.11115e-09c-0.390037,-0.387724 -1.01996,-0.387724 -1.41,-1.22223e-08l-30.95,31l-3.96068e-08,3.70212e-08c-0.15251,0.142554 -0.25137,0.333212 -0.28,0.54l-0.82,4.79l-1.19,1.17l2.29995e-08,-2.28116e-08c-0.392122,0.38892 -0.394718,1.02208 -0.00579837,1.4142c0.00192484,0.00194069 0.00385763,0.00387348 0.00579832,0.00579832l-5.44459e-08,-5.40038e-08c0.188719,0.187187 0.444197,0.291537 0.71,0.29l4.11641e-08,-1.73344e-10c0.26234,-0.00110463 0.513739,-0.105256 0.7,-0.29l1.19,-1.19l4.8,-0.82l6.05071e-08,-9.07497e-09c0.206058,-0.030905 0.396008,-0.129397 0.54,-0.28l27.06,-27.13l1.42,1.42l-11.32,11.35l-3.77354e-08,3.80031e-08c-0.389361,0.392122 -0.387122,1.02564 0.00500008,1.415c0.392122,0.389361 1.02564,0.387122 1.415,-0.00500008c0,0 1.05053e-08,-1.05798e-08 1.05053e-08,-1.05798e-08l12,-12l5.0936e-09,-5.12399e-09c0.387724,-0.390037 0.387724,-1.01996 -1.01872e-08,-1.41l-2.12,-2.12l2.47,-2.48l-9.28831e-09,8.82962e-09c0.400283,-0.380516 0.416307,-1.01348 0.0357914,-1.41376c-0.00520232,-0.00547257 -0.0104664,-0.010886 -0.0157914,-0.0162394Zm-32.14,30.72l-3.41,0.54l0.58,-3.4l26.84,-26.8l2.83,2.83Zm28.25,-28.25l-2.83,-2.82l1.77,-1.77l2.83,2.83Z"></path></g></svg>