<?xml version="1.0" encoding="UTF-8"?><svg version="1.1" viewBox="0 0 100 100" xmlns="http://www.w3.org/2000/svg" xmlns:xlink="http://www.w3.org/1999/xlink"><!--Generated by IJSVG (https://github.com/iconjar/IJSVG)--><path d="M89.5,58.79h-4.37114e-08c0.552285,2.41411e-08 1,-0.447715 1,-1v-32.79v0c0,-0.552285 -0.447715,-1 -1,-1h-79h-4.37114e-08c-0.552285,2.41411e-08 -1,0.447715 -1,1c0,0 0,7.10543e-15 0,7.10543e-15v48.5c0,0 0,0.07 0,0.11l-6.14379e-08,8.70256e-07c-0.0047006,0.0665834 -0.00470059,0.133415 3.88682e-08,0.199999l1.21512e-08,3.95707e-08c0.0198275,0.064569 0.0502413,0.125397 0.09,0.18c0,0 0,0.07 0,0.1c0,0.03 0,0 0.05,0.05l4.41007e-08,4.87579e-08c0.0720514,0.0796604 0.156466,0.147192 0.25,0.2l3.20009e-08,2.71366e-08c0.0275909,0.023397 0.0577909,0.0435303 0.09,0.06l-2.16986e-08,-1.05171e-08c0.131048,0.063518 0.274389,0.0976467 0.42,0.1h76.69l-6.15,6.15l1.73159e-08,-1.74192e-08c-0.387724,0.390037 -0.387724,1.01996 -3.46318e-08,1.41l-2.58764e-08,-2.57229e-08c0.390037,0.387724 1.01996,0.387724 1.41,5.14459e-08l7.86,-7.85l-2.07073e-08,2.12137e-08c0.089951,-0.0921504 0.161257,-0.200807 0.21,-0.32l1.83597e-08,-4.30975e-08c0.0525365,-0.123324 0.0797423,-0.255952 0.08,-0.39l9.93758e-09,8.21943e-07c-0.00157988,-0.130677 -0.0287588,-0.259778 -0.0799997,-0.38l5.36641e-08,1.28417e-07c-0.0506418,-0.121185 -0.121669,-0.232799 -0.21,-0.33l-7.86,-7.79l3.80582e-08,3.25922e-08c-0.419484,-0.359237 -1.05076,-0.310397 -1.41,0.109087c-0.320609,0.374378 -0.320609,0.926536 4.3294e-07,1.30091l6.15,6.15h-73.54l29.93,-22l6,3.73l-1.97567e-08,-1.2348e-08c0.324271,0.20267 0.735729,0.20267 1.06,2.4696e-08l6,-3.73l14.54,10.71l-5.47047e-10,-3.96057e-10c0.171579,0.124224 0.378174,0.190754 0.59,0.19l3.24768e-08,1.16231e-10c0.552281,0.00197659 1.0016,-0.444133 1.00357,-0.996415c0.00115228,-0.321959 -0.152782,-0.62478 -0.413573,-0.813585l-13.91,-10.2l30.15,-18.71v27.05l1.42109e-14,1.50996e-07c8.33927e-08,0.552285 0.447715,1 1,1Zm-78,12.78v-40.83l30.15,18.71Zm44.56,-23v0l-6,3.76l-6,-3.76v0l-32.56,-20.19v-2.38h77v2.34Z" fill="#000"></path></svg>