<?xml version="1.0" encoding="UTF-8"?><svg version="1.1" viewBox="0 0 100 100" xmlns="http://www.w3.org/2000/svg" xmlns:xlink="http://www.w3.org/1999/xlink"><!--Generated by IJSVG (https://github.com/iconjar/IJSVG)--><g fill="#B49167"><path d="M15.18,88.32l-1.90836e-08,-5.02643e-08c0.0238709,0.0628736 0.0540235,0.123179 0.0899998,0.18l-2.88923e-08,-8.2198e-08c0.0139406,0.0396608 0.034202,0.0768068 0.0599999,0.11c0,0 0,0 0,0l6.37817e-08,7.17973e-08c0.068286,0.0768676 0.149515,0.141174 0.24,0.19l0.1,0.07l-2.49998e-08,-1.09703e-08c0.129384,0.0567759 0.268732,0.0873644 0.41,0.09h67.8l-5.97628e-08,1.11497e-09c0.141268,-0.00263559 0.280616,-0.0332241 0.41,-0.09c0,0 0.06,0 0.1,-0.06l2.2255e-08,-1.39425e-08c0.0886524,-0.0555396 0.169384,-0.122816 0.24,-0.2c0,0 0,0 0,0l-9.47713e-09,1.21939e-08c0.0257979,-0.0331932 0.0460594,-0.0703391 0.06,-0.11l2.33674e-08,-3.69064e-08c0.0359764,-0.0568209 0.066129,-0.117126 0.0899999,-0.18l5.19506e-08,-7.3587e-07c0.00470061,-0.0665834 0.0047006,-0.133415 -1.98936e-08,-0.199999c0,0 0,-0.08 0,-0.12v-47.44l2.35609e-08,-4.07662e-06c0.00153568,-0.265803 -0.102816,-0.521281 -0.290003,-0.709999l-2,-2l-3.18735e-10,-3.66647e-10c-0.362339,-0.416808 -0.993962,-0.460964 -1.41077,-0.0986251c-0.416808,0.362339 -0.460964,0.993962 -0.0986251,1.41077c0.0336456,0.0387035 0.0702187,0.0747614 0.109395,0.107855l1.79,1.73v6.18l-32.88,21.48l-32.88,-21.5v-6.16l1.73,-1.72l-3.18749e-10,3.66668e-10c0.362339,-0.416808 0.318183,-1.04843 -0.0986251,-1.41077c-0.372175,-0.323539 -0.924648,-0.327457 -1.30137,-0.00922961l-2,2l-1.22293e-07,1.23294e-07c-0.187186,0.188719 -0.291537,0.444197 -0.29,0.71v47.43c0,0 0,0.08 0,0.12l-4.76737e-08,-1.65287e-06c0.00193404,0.0670552 0.00861733,0.133889 0.0199997,0.199999Zm67.7,-2.32l-25.52,-19.76l25.52,-16.69Zm-32.88,-15.15l1.86269e-08,1.37305e-10c0.195013,0.00143758 0.38619,-0.0541777 0.55,-0.16l5,-3.3l25.45,19.61h-61.95l25.36,-19.61l5,3.3l-2.30456e-08,-1.49491e-08c0.175144,0.113612 0.381453,0.16956 0.59,0.16Zm-7.36,-4.61l-25.52,19.76v-36.45Z"></path><path d="M22.29,47.34h-4.37114e-08c0.552285,2.41411e-08 1,-0.447715 1,-1v-32.41l7.10543e-15,-1.40426e-07c7.75552e-08,-0.513625 0.416375,-0.93 0.93,-0.93h51.56h-4.06516e-08c0.513625,-2.24513e-08 0.93,0.416375 0.93,0.93c0,0 0,0 0,0v32.41l1.42109e-14,1.50996e-07c8.33927e-08,0.552285 0.447715,1 1,1c0.552285,-8.33927e-08 1,-0.447715 1,-1v-32.41v0c0,-1.61819 -1.31181,-2.93 -2.93,-2.93h-51.56h-1.28074e-07c-1.61819,7.07335e-08 -2.93,1.31181 -2.93,2.93c0,0 0,7.10543e-15 0,7.10543e-15v32.41l7.10543e-15,1.50996e-07c8.33927e-08,0.552285 0.447715,1 1,1Z"></path><path d="M30,23.63h13.51h-4.37114e-08c0.552285,2.41411e-08 1,-0.447715 1,-1c2.41411e-08,-0.552285 -0.447715,-1 -1,-1h-13.51h-4.37114e-08c-0.552285,2.41411e-08 -1,0.447715 -1,1c2.41411e-08,0.552285 0.447715,1 1,1Z"></path><path d="M64.08,32h-34.08h-4.37114e-08c-0.552285,2.41411e-08 -1,0.447715 -1,1c2.41411e-08,0.552285 0.447715,1 1,1h34.08h-4.37114e-08c0.552285,2.41411e-08 1,-0.447715 1,-1c2.41411e-08,-0.552285 -0.447715,-1 -1,-1Z"></path><path d="M65.08,39.23v0c0,-0.552285 -0.447715,-1 -1,-1h-34.08h-4.37114e-08c-0.552285,2.41411e-08 -1,0.447715 -1,1c2.41411e-08,0.552285 0.447715,1 1,1h34.08h-4.37114e-08c0.552285,2.41411e-08 1,-0.447715 1,-1Z"></path><path d="M30,44.44h-4.37114e-08c-0.552285,2.41411e-08 -1,0.447715 -1,1c2.41411e-08,0.552285 0.447715,1 1,1h23.82h-4.37114e-08c0.552285,2.41411e-08 1,-0.447715 1,-1c2.41411e-08,-0.552285 -0.447715,-1 -1,-1Z"></path></g></svg>