<?xml version="1.0" encoding="UTF-8"?><svg version="1.1" viewBox="0 0 100 100" xmlns="http://www.w3.org/2000/svg" xmlns:xlink="http://www.w3.org/1999/xlink"><!--Generated by IJSVG (https://github.com/iconjar/IJSVG)--><g fill="#B49167"><path d="M13.58,78.63h18.24c1.56,3 4.31,5 8.51,6v0.22l-1.39754e-07,0.000271825c-0.000867542,1.77704 0.898962,3.43343 2.39023,4.39988c1.66977,1.16985 4.11977,1.74985 7.27977,1.74985c5,0 7.17,-1.87 7.17,-3.71c0,-1.84 -2.13,-3.65 -6.9,-3.65l1.57137e-06,-2.16508e-08c-2.53594,0.034941 -5.07063,-0.132255 -7.58,-0.5l-1.86483e-07,4.51227e-07c1.06861,-2.58568 3.51761,-4.33608 6.31,-4.51h37.42h-4.37114e-08c0.552285,2.41411e-08 1,-0.447715 1,-1v-57.75v0c0,-0.552285 -0.447715,-1 -1,-1h-42.42h-4.37114e-08c-0.552285,2.41411e-08 -1,0.447715 -1,1c2.41411e-08,0.552285 0.447715,1 1,1h41.42v55.75h-52.34l-5.10506e-08,-1.50062e-07c-0.548163,-1.61131 -0.841689,-3.29824 -0.87,-5h0.79l-2.18977e-07,3.18039e-10c3.79191,-0.00550739 6.86449,-3.07809 6.87,-6.87v-48.88l3.84404e-12,-7.26745e-06c0,-3.79582 -3.07419,-6.87448 -6.87001,-6.87999h-3.56999h-3.00734e-07c-3.79972,1.66091e-07 -6.88,3.08028 -6.88,6.88c0,0 0,0 0,0v48.84l-2.96698e-07,-0.000206255c0.00540338,3.79581 3.08398,6.8701 6.87979,6.87021h0.79l-5.41381e-07,-2.64389e-05c0.0346883,1.6941 0.297037,3.37583 0.779993,5h-16.4198v-55.71h3.8h-4.37114e-08c0.552285,2.41411e-08 1,-0.447715 1,-1c2.41411e-08,-0.552285 -0.447715,-1 -1,-1h-4.8h-4.37114e-08c-0.552285,2.41411e-08 -1,0.447715 -1,1c0,0 0,0 0,0v57.75v-1.50996e-07c-8.33927e-08,0.552285 0.447715,1 1,1Zm11,-13.91v-48.84l1.54277e-08,-7.66655e-06c0.00539764,-2.68123 2.16886,-4.85807 4.85001,-4.87999h3.56999l-8.67848e-08,-1.77835e-10c2.69124,0.00551481 4.87001,2.18875 4.87,4.88v48.84h-7.10543e-15c0,2.68963 -2.18037,4.87 -4.87,4.87c0,0 -1.84741e-13,0 -1.84741e-13,0h-3.57l1.212e-08,-1.42109e-14c-2.69125,5.65716e-06 -4.87449,-2.17876 -4.88,-4.87Zm25.69,20.92c3.46,0 4.9,1.07 4.9,1.65c0,0.58 -1.52,1.71 -5.17,1.71l5.2489e-07,-3.40399e-08c-2.13988,0.138774 -4.27457,-0.34023 -6.15,-1.38l-1.67222e-07,-1.0386e-07c-0.890404,-0.553023 -1.4571,-1.50372 -1.52,-2.55l-2.53081e-06,-3.96161e-07c2.62613,0.411084 5.28206,0.601749 7.93998,0.570001Zm-6.59,-7l-7.09277e-07,5.50196e-07c-1.36691,1.06033 -2.40677,2.48494 -3,4.11c-3.12,-0.78 -5.26,-2.1 -6.61,-4.11Z"></path><path d="M81.14,34.78v-8.62v0c0,-0.552285 -0.447715,-1 -1,-1h-29.87h-4.37114e-08c-0.552285,2.41411e-08 -1,0.447715 -1,1c0,0 0,3.55271e-15 0,3.55271e-15v8.62l1.42109e-14,1.50996e-07c8.33927e-08,0.552285 0.447715,1 1,1h29.87l-4.37114e-08,-7.10543e-15c0.552285,2.41411e-08 1,-0.447715 1,-1c0,-1.35461e-08 0,-3.01653e-08 0,-4.37114e-08Zm-2,-1h-27.87v-6.62h27.87Z"></path><path d="M55.56,40.47l-8.25138e-08,6.03961e-13c-1.44699,1.05854e-05 -2.61999,1.17303 -2.61998,2.62002c1.05854e-05,1.44699 1.17303,2.61999 2.62002,2.61998c1.44699,-1.05854e-05 2.61999,-1.17303 2.61998,-2.62002c-2.43385e-08,-0.00332698 -6.38578e-06,-0.00665396 -1.90843e-05,-0.00998092l6.97042e-11,-1.90746e-05c0,-1.44146 -1.16854,-2.61 -2.61,-2.61c-0.0033397,0 -0.0066794,6.41012e-06 -0.0100191,1.92303e-05Z"></path><path d="M65.21,40.47l-5.04036e-08,-1.9201e-10c-1.44698,-0.00551232 -2.62445,1.16302 -2.62996,2.61c-0.00551232,1.44698 1.16302,2.62445 2.61,2.62996c1.44698,0.00551232 2.62445,-1.16302 2.62996,-2.61c2.53486e-05,-0.00665397 2.53485e-05,-0.013308 -3.93101e-10,-0.019962l1.15879e-07,3.04642e-05c-0.00546597,-1.43919 -1.17078,-2.60453 -2.60997,-2.61003Z"></path><path d="M74.85,40.47l-8.25138e-08,6.03961e-13c-1.44699,1.05854e-05 -2.61999,1.17303 -2.61998,2.62002c1.05854e-05,1.44699 1.17303,2.61999 2.62002,2.61998c1.44699,-1.05854e-05 2.61999,-1.17303 2.61998,-2.62002c-2.43384e-08,-0.00332698 -6.38578e-06,-0.00665396 -1.90843e-05,-0.00998092l6.97042e-11,-1.90746e-05c0,-1.44146 -1.16854,-2.61 -2.61,-2.61c-0.0033397,0 -0.0066794,6.41012e-06 -0.0100191,1.92303e-05Z"></path><path d="M55.56,48.57h-1.14524e-07c-1.44699,6.32498e-08 -2.62,1.17301 -2.62,2.62c6.32498e-08,1.44699 1.17301,2.62 2.62,2.62c1.44699,-6.32498e-08 2.62,-1.17301 2.62,-2.62c0,0 0,-7.10543e-15 0,-7.10543e-15l9.55927e-08,-2.49329e-05c0.00551964,-1.44145 -1.15853,-2.61446 -2.59999,-2.61998c-0.00667943,-2.5577e-05 -0.0133589,-2.5513e-05 -0.0200383,1.91872e-07Z"></path><path d="M65.21,48.57l-9.98826e-09,-3.81277e-11c-1.44698,-0.00552284 -2.62446,1.16301 -2.62998,2.60998c-0.00552284,1.44698 1.16301,2.62446 2.60998,2.62998c1.44698,0.00552284 2.62446,-1.16301 2.62998,-2.60998c1.26984e-05,-0.00332696 1.90597e-05,-0.00665393 1.90839e-05,-0.00998092l6.94342e-11,-1.90741e-05c0,-1.44309 -1.16694,-2.61448 -2.61002,-2.61998Z"></path><path d="M74.85,48.57h-1.14524e-07c-1.44699,6.32498e-08 -2.62,1.17301 -2.62,2.62c6.32498e-08,1.44699 1.17301,2.62 2.62,2.62c1.44699,-6.32498e-08 2.62,-1.17301 2.62,-2.62l9.55927e-08,-2.49329e-05c0.00551964,-1.44145 -1.15853,-2.61446 -2.59999,-2.61998c-0.00667943,-2.5577e-05 -0.0133589,-2.5513e-05 -0.0200383,1.91872e-07Z"></path><path d="M55.56,56.68l-8.25138e-08,6.03961e-13c-1.44699,1.05854e-05 -2.61999,1.17303 -2.61998,2.62002c1.05854e-05,1.44699 1.17303,2.61999 2.62002,2.61998c1.44699,-1.05854e-05 2.61999,-1.17303 2.61998,-2.62002c-2.43385e-08,-0.00332698 -6.38578e-06,-0.00665396 -1.90843e-05,-0.00998092l6.97042e-11,-1.90746e-05c0,-1.44146 -1.16854,-2.61 -2.61,-2.61c-0.0033397,0 -0.0066794,6.41012e-06 -0.0100191,1.92303e-05Z"></path><path d="M65.21,56.68l-5.04036e-08,-1.9201e-10c-1.44698,-0.00551232 -2.62445,1.16302 -2.62996,2.61c-0.00551232,1.44698 1.16302,2.62445 2.61,2.62996c1.44698,0.00551232 2.62445,-1.16302 2.62996,-2.61c2.53486e-05,-0.00665397 2.53485e-05,-0.013308 -3.93101e-10,-0.019962l1.15879e-07,3.04642e-05c-0.00546597,-1.43919 -1.17078,-2.60453 -2.60997,-2.61003Z"></path><path d="M74.85,56.68l-8.25138e-08,6.03961e-13c-1.44699,1.05854e-05 -2.61999,1.17303 -2.61998,2.62002c1.05854e-05,1.44699 1.17303,2.61999 2.62002,2.61998c1.44699,-1.05854e-05 2.61999,-1.17303 2.61998,-2.62002c-2.43384e-08,-0.00332698 -6.38578e-06,-0.00665396 -1.90843e-05,-0.00998092l6.97042e-11,-1.90746e-05c0,-1.44146 -1.16854,-2.61 -2.61,-2.61c-0.0033397,0 -0.0066794,6.41012e-06 -0.0100191,1.92303e-05Z"></path><path d="M55.56,64.78h-1.14524e-07c-1.44699,6.32498e-08 -2.62,1.17301 -2.62,2.62c6.32498e-08,1.44699 1.17301,2.62 2.62,2.62c1.44699,-6.32498e-08 2.62,-1.17301 2.62,-2.62v1.14524e-07c0,-1.44699 -1.17301,-2.62 -2.62,-2.62Z"></path><path d="M65.21,64.78l-9.98826e-09,-3.81277e-11c-1.44698,-0.00552284 -2.62446,1.16301 -2.62998,2.60998c-0.00552284,1.44698 1.16301,2.62446 2.60998,2.62998c1.44698,0.00552284 2.62446,-1.16301 2.62998,-2.60998c1.26984e-05,-0.00332696 1.90597e-05,-0.00665393 1.90839e-05,-0.00998092l6.95291e-08,1.8443e-05c-0.00542681,-1.44083 -1.16918,-2.60906 -2.60998,-2.62002Z"></path><path d="M74.85,64.78h-1.14524e-07c-1.44699,6.32498e-08 -2.62,1.17301 -2.62,2.62c6.32498e-08,1.44699 1.17301,2.62 2.62,2.62c1.44699,-6.32498e-08 2.62,-1.17301 2.62,-2.62v1.14524e-07c0,-1.44699 -1.17301,-2.62 -2.62,-2.62Z"></path></g></svg>